<svg width="60" height="60" viewBox="0 0 60 60" fill="none" xmlns="http://www.w3.org/2000/svg">
<path d="M38.6719 19.3359C38.6719 8.6741 29.9978 0 19.3359 0C8.6741 0 0 8.6741 0 19.3359C0 24.2229 0.908906 29.0816 1.78781 33.7802C2.6373 38.3214 3.51562 43.0172 3.51562 47.5781C3.51562 54.4275 9.03551 60 15.8203 60C22.6051 60 28.125 54.4275 28.125 47.5781C28.125 46.7052 28.0339 45.7593 27.8749 44.9829C27.0172 40.7914 30.1043 35.9127 33.0086 33.0084C36.6606 29.3564 38.6719 24.5007 38.6719 19.3359ZM24.4308 45.6878C24.5426 46.2343 24.6094 46.941 24.6094 47.5781C24.6094 52.489 20.6666 56.4844 15.8203 56.4844C10.974 56.4844 7.03125 52.489 7.03125 47.5781C7.03125 42.6912 6.12234 37.8325 5.24344 33.1338C4.39395 28.5927 3.51562 23.8969 3.51562 19.3359C3.51562 10.6126 10.6126 3.51562 19.3359 3.51562C28.0593 3.51562 35.1562 10.6126 35.1562 19.3359C35.1562 23.5617 33.5107 27.5345 30.5227 30.5225C26.8325 34.2128 23.2943 40.1345 24.4308 45.6878Z" fill="#4F4F4F"/>
<path d="M21.6348 7.24159C13.9097 5.82679 7.03125 11.7366 7.03125 19.3357C7.03125 23.5671 7.84031 27.8669 8.69883 32.4294C8.97457 33.8943 9.25969 35.4089 9.51551 36.918C10.0336 39.9712 12.6204 42.1873 15.6666 42.1873C18.6279 42.1873 21.1986 40.0798 21.7793 37.1761C21.7836 36.6357 23.9003 30.962 19.5022 25.5973C17.2853 22.893 14.067 21.2784 10.597 21.1085C10.5643 20.512 10.5469 19.9213 10.5469 19.3357C10.5469 14.0368 15.3236 9.65999 21.0015 10.6997C27.8994 11.963 30.5338 20.5651 25.5511 25.552L28.0382 28.0369C34.9577 21.1112 31.4053 9.03093 21.6348 7.24159ZM16.7835 27.826C20.0088 31.7603 18.3435 35.8847 18.3319 36.4866C18.0786 37.7527 16.9577 38.6716 15.6666 38.6716C14.3411 38.6716 13.212 37.6868 12.9818 36.3301C12.7206 34.7898 12.4324 33.2593 12.152 31.7691C11.6919 29.3241 11.2461 26.9549 10.9416 24.6606C13.2202 24.907 15.311 26.03 16.7835 27.826Z" fill="#4F4F4F"/>
<path d="M60 28.125H42.3047V31.6406H60V28.125Z" fill="#4F4F4F"/>
<path d="M44.8463 42.3714L43.2742 45.5156L57.3354 52.5462L58.9075 49.402L44.8463 42.3714Z" fill="#4F4F4F"/>
<path d="M57.3386 7.21744L43.2773 14.248L44.8495 17.3923L58.9107 10.3617L57.3386 7.21744Z" fill="#4F4F4F"/>
</svg>
