<svg width="60" height="56" viewBox="0 0 60 56" fill="none" xmlns="http://www.w3.org/2000/svg">
<path d="M48.0844 32.1975L42.3045 19.7103C42.2366 14.6758 39.9501 9.903 35.8502 6.24784C31.7873 2.65252 26.5581 0.653041 21.1332 0.621094C12.2494 0.621094 3.83003 6.04754 1.08968 13.5323C-0.894089 17.6824 0.260064 25.7209 1.18805 32.1859C1.42588 33.841 1.65053 35.4049 1.80012 36.7497L1.89799 54.1102C1.90255 54.6731 2.36097 55.1264 2.92334 55.1249L28.8913 55.4403H28.9045C29.1839 55.4469 29.4552 55.3465 29.6621 55.1589C29.8669 54.9738 29.9886 54.7142 29.9998 54.4383V47.3952L36.3294 47.591C37.8497 47.6356 39.3238 47.0656 40.4191 46.0109C41.5145 44.9556 42.1382 43.5038 42.1504 41.983L42.229 33.7883L47.1686 33.6727C47.518 33.6641 47.84 33.48 48.0246 33.1828C48.2097 32.8857 48.232 32.5155 48.0844 32.198V32.1975ZM41.1727 31.7356C40.6128 31.7487 40.1646 32.2036 40.159 32.7634L40.0662 41.9617C40.0566 42.9272 39.659 43.8481 38.9622 44.5164C38.266 45.1848 37.3299 45.5448 36.3649 45.5154L21.5658 45.06C20.9932 45.0438 20.5145 45.4936 20.4958 46.0661C20.4917 46.6452 20.9517 47.1209 21.5303 47.1361L27.9227 47.3313V53.3861L3.99737 53.0793L3.89088 36.6833C3.88835 36.6473 3.88429 36.6113 3.8777 36.5753C3.72455 35.1848 3.49129 33.5844 3.24788 31.8897C2.35539 25.6813 1.24434 17.9532 2.98216 14.3923C2.99788 14.3589 3.01208 14.3249 3.02425 14.2904C4.19362 11.0627 6.66115 8.1165 9.97402 5.99531C13.3082 3.86499 17.1768 2.722 21.1332 2.69816C26.049 2.72758 30.7868 4.53943 34.4678 7.79753C38.1833 11.1099 40.229 15.4222 40.229 19.9415C40.229 20.0921 40.2619 20.2412 40.3253 20.3781L45.5342 31.6321L41.1727 31.7356Z" fill="#4F4F4F"/>
<path d="M48.2021 36.1209C47.7954 36.5256 47.7939 37.1833 48.1991 37.5895C50.7579 40.1696 50.7579 44.3298 48.1991 46.9099C47.9344 47.1721 47.8309 47.5559 47.9273 47.9155C48.0236 48.2755 48.3055 48.5559 48.6656 48.6513C49.0256 48.7461 49.409 48.6411 49.6707 48.3754C53.0347 44.9844 53.0347 39.5149 49.6707 36.124C49.266 35.7178 48.6083 35.7162 48.2021 36.1209Z" fill="#4F4F4F"/>
<path d="M54.5409 32.6053C54.1352 33.0105 54.1352 33.6682 54.5409 34.0738C59.0561 38.589 59.0535 45.9972 54.5348 50.5865C54.2675 50.8496 54.1631 51.2361 54.2609 51.5981C54.3588 51.9597 54.6443 52.2406 55.0079 52.3329C55.371 52.4252 55.7559 52.3147 56.015 52.0434C61.3309 46.6433 61.3278 37.9237 56.0089 32.6048C55.6032 32.1991 54.946 32.1996 54.5409 32.6053Z" fill="#4F4F4F"/>
</svg>
