<svg width="48" height="60" viewBox="0 0 48 60" fill="none" xmlns="http://www.w3.org/2000/svg">
<path d="M44.0418 0H11.975C9.79926 0 8.02926 1.77012 8.02926 3.9457V4.00828H7.96668C5.79098 4.00828 4.02098 5.7784 4.02098 7.95398V8.01656H3.9584C1.7827 8.01656 0.0126953 9.78668 0.0126953 11.9623V56.0541C0.0126953 58.2298 1.78281 59.9998 3.9584 59.9998H36.0252C38.2009 59.9998 39.9709 58.2296 39.9709 56.0541V55.9915H40.0335C42.2092 55.9915 43.9792 54.2214 43.9792 52.0458V51.9832H44.0418C46.2175 51.9832 47.9875 50.2131 47.9875 48.0375V3.9457C47.9875 1.77012 46.2175 0 44.0418 0ZM38.092 56.0543C38.092 57.1939 37.1648 58.1211 36.0251 58.1211H3.95828C2.81863 58.1211 1.89145 57.1939 1.89145 56.0543V39.9582H38.0918V56.0543H38.092ZM38.092 38.0794H1.89145V11.9624C1.89145 10.8227 2.81863 9.89555 3.95828 9.89555H36.0251C37.1648 9.89555 38.092 10.8227 38.092 11.9624V38.0794ZM42.1002 52.0459C42.1002 53.1855 41.173 54.1127 40.0334 54.1127H39.9708V35.9498H42.1002V52.0459ZM42.1002 34.071H39.9708V11.9624C39.9708 9.78668 38.2007 8.01668 36.0251 8.01668H5.89984V7.9541C5.89984 6.81445 6.82703 5.88727 7.96668 5.88727H40.0335C41.1732 5.88727 42.1004 6.81445 42.1004 7.9541V34.071H42.1002ZM46.1086 48.0376C46.1086 49.1773 45.1814 50.1045 44.0418 50.1045H43.9792V31.9416H46.1086V48.0376ZM46.1086 30.0626H43.9792V7.9541C43.9792 5.7784 42.2091 4.0084 40.0335 4.0084H9.90812V3.9457C9.90812 2.80605 10.8353 1.87887 11.975 1.87887H44.0418C45.1814 1.87887 46.1086 2.80605 46.1086 3.9457V30.0626Z" fill="#4F4F4F"/>
<path d="M21.8989 32.7549L17.2962 16.1852C16.9437 14.9158 15.7775 14.0293 14.4601 14.0293H12.4964C11.1789 14.0293 10.0127 14.9158 9.66006 16.1851L5.05717 32.7549C4.91842 33.2548 5.21104 33.7727 5.71108 33.9116C6.21112 34.0503 6.72885 33.7576 6.86772 33.2578L8.06831 28.9353H18.8879L20.0885 33.2576C20.204 33.6735 20.5817 33.946 20.9933 33.946C21.0765 33.946 21.1611 33.9349 21.2452 33.9116C21.7451 33.7727 22.0379 33.2548 21.8989 32.7549ZM8.59026 27.0564L11.4705 16.6879C11.598 16.2289 12.0199 15.9082 12.4964 15.9082H14.4601C14.9365 15.9082 15.3584 16.2288 15.4858 16.6879L18.3659 27.0564H8.59026Z" fill="#4F4F4F"/>
<path d="M34.021 32.0677C33.9864 32.0677 33.9584 32.0397 33.9584 32.0051V28.4978V27.4957V22.9864C33.9584 22.4676 33.5378 22.0469 33.0189 22.0469C32.5 22.0469 32.0794 22.4675 32.0794 22.9864V23.3846C31.1225 22.5524 29.8742 22.0469 28.5094 22.0469C25.505 22.0469 23.0605 24.4912 23.0605 27.4957V28.4978C23.0605 31.5023 25.5048 33.9467 28.5094 33.9467C29.9109 33.9467 31.1901 33.4145 32.1565 32.5421C32.3903 33.352 33.1368 33.9467 34.0209 33.9467C34.5397 33.9467 34.9604 33.5261 34.9604 33.0072C34.9604 32.4883 34.5399 32.0677 34.021 32.0677ZM32.0795 28.4977C32.0795 30.4662 30.478 32.0676 28.5095 32.0676C26.541 32.0676 24.9396 30.4661 24.9396 28.4977V27.4956C24.9396 25.5271 26.5411 23.9257 28.5095 23.9257C30.4779 23.9257 32.0795 25.5272 32.0795 27.4956V28.4977Z" fill="#4F4F4F"/>
<path d="M33.0187 44.0918H6.96439C6.44561 44.0918 6.0249 44.5124 6.0249 45.0313C6.0249 45.5501 6.44549 45.9708 6.96439 45.9708H33.0187C33.5375 45.9708 33.9582 45.5502 33.9582 45.0313C33.9582 44.5124 33.5376 44.0918 33.0187 44.0918Z" fill="#4F4F4F"/>
<path d="M22.9979 52.1094H6.96439C6.44561 52.1094 6.0249 52.53 6.0249 53.0489C6.0249 53.5677 6.44549 53.9884 6.96439 53.9884H22.9978C23.5165 53.9884 23.9372 53.5678 23.9372 53.0489C23.9374 52.53 23.5167 52.1094 22.9979 52.1094Z" fill="#4F4F4F"/>
<path d="M12.9766 48.0996H6.96439C6.4456 48.0996 6.0249 48.5202 6.0249 49.0391C6.0249 49.5579 6.44549 49.9786 6.96439 49.9786H12.9766C13.4954 49.9786 13.9161 49.558 13.9161 49.0391C13.9161 48.5202 13.4955 48.0996 12.9766 48.0996Z" fill="#4F4F4F"/>
<path d="M33.0187 48.0996H16.9854C16.4666 48.0996 16.0459 48.5202 16.0459 49.0391C16.0459 49.5579 16.4665 49.9786 16.9854 49.9786H33.0187C33.5375 49.9786 33.9582 49.558 33.9582 49.0391C33.9582 48.5202 33.5377 48.0996 33.0187 48.0996Z" fill="#4F4F4F"/>
</svg>
