<svg width="18" height="16" viewBox="0 0 18 16" fill="none" xmlns="http://www.w3.org/2000/svg">
<path d="M0 0H18V16H0V0Z" fill="white"/>
<mask id="mask0" mask-type="alpha" maskUnits="userSpaceOnUse" x="0" y="0" width="18" height="16">
<path d="M1 16H17C17.55 16 18 15.4 18 14.6667C18 13.9333 17.55 13.3333 17 13.3333H1C0.45 13.3333 0 13.9333 0 14.6667C0 15.4 0.45 16 1 16ZM1 9.33333H17C17.55 9.33333 18 8.73333 18 8C18 7.26667 17.55 6.66667 17 6.66667H1C0.45 6.66667 0 7.26667 0 8C0 8.73333 0.45 9.33333 1 9.33333ZM0 1.33333C0 2.06667 0.45 2.66667 1 2.66667H17C17.55 2.66667 18 2.06667 18 1.33333C18 0.6 17.55 0 17 0H1C0.45 0 0 0.6 0 1.33333Z" fill="white"/>
</mask>
<g mask="url(#mask0)">
<path d="M1 16H17C17.55 16 18 15.4 18 14.6667C18 13.9333 17.55 13.3333 17 13.3333H1C0.45 13.3333 0 13.9333 0 14.6667C0 15.4 0.45 16 1 16ZM1 9.33333H17C17.55 9.33333 18 8.73333 18 8C18 7.26667 17.55 6.66667 17 6.66667H1C0.45 6.66667 0 7.26667 0 8C0 8.73333 0.45 9.33333 1 9.33333ZM0 1.33333C0 2.06667 0.45 2.66667 1 2.66667H17C17.55 2.66667 18 2.06667 18 1.33333C18 0.6 17.55 0 17 0H1C0.45 0 0 0.6 0 1.33333Z" fill="#FF6536"/>
</g>
</svg>
