<svg width="76" height="75" viewBox="0 0 76 75" fill="none" xmlns="http://www.w3.org/2000/svg">
<path d="M0.5 0H75.5V75H0.5V0Z" fill="#FDB44D"/>
<path d="M50.8716 20.1794C53.6566 23.3397 54.962 27.6412 54.3528 32.2061C53.3085 40.6336 47.2164 43.6183 41.8205 43.6183C41.5594 43.6183 41.3854 43.6183 41.3854 43.6183V45.7252C41.3854 47.6565 39.8189 49.2366 37.9042 49.2366C35.9895 49.2366 34.423 47.6565 34.423 45.7252V42.9161C34.423 40.0191 35.6414 36.5954 41.8205 36.5954C45.2147 36.5954 46.9553 34.8397 47.3904 31.3282C47.5645 30.187 47.6516 27.1146 45.5628 24.8321C43.9093 22.9886 41.2113 22.0229 37.5561 22.0229C29.7234 22.0229 29.4624 27.2023 29.4624 27.729C29.4624 29.6603 27.8958 31.2404 25.9812 31.2404C24.0665 31.2404 22.5 29.6603 22.5 27.729C22.5 24.2176 25.1979 15 37.5561 15C44.7795 15 48.7829 17.8092 50.8716 20.1794ZM37.6431 52.2214C36.5117 52.2214 35.3803 52.6603 34.597 53.5382C33.8138 54.3282 33.2916 55.4695 33.2916 56.6107C33.2916 57.7519 33.7267 58.8931 34.597 59.6832C35.3803 60.4733 36.5117 61 37.6431 61C38.7745 61 39.9058 60.5611 40.6891 59.6832C41.4724 58.8931 41.9946 57.7519 41.9946 56.6107C41.9946 55.4695 41.5594 54.3282 40.6891 53.5382C39.9929 52.7481 38.8615 52.2214 37.6431 52.2214Z" fill="white"/>
<path d="M0.5 0V-1H-0.5V0H0.5ZM75.5 0H76.5V-1H75.5V0ZM75.5 75V76H76.5V75H75.5ZM0.5 75H-0.5V76H0.5V75ZM0.5 1H75.5V-1H0.5V1ZM74.5 0V75H76.5V0H74.5ZM75.5 74H0.5V76H75.5V74ZM1.5 75V0H-0.5V75H1.5Z" fill="#E4E7EB"/>
</svg>
