<svg width="16" height="14" viewBox="0 0 16 14" fill="none" xmlns="http://www.w3.org/2000/svg">
<path d="M14.789 6.89094L8.75149 0.856564L8.34681 0.451877C8.2546 0.360277 8.1299 0.308868 7.99993 0.308868C7.86996 0.308868 7.74526 0.360277 7.65306 0.451877L1.21087 6.89094C1.11639 6.98505 1.04171 7.09714 0.991262 7.22059C0.94081 7.34404 0.915599 7.47634 0.917118 7.60969C0.923368 8.15969 1.38118 8.59875 1.93118 8.59875H2.59524V13.6878H13.4046V8.59875H14.0827C14.3499 8.59875 14.6015 8.49406 14.7906 8.305C14.8836 8.21221 14.9574 8.10187 15.0076 7.98037C15.0577 7.85887 15.0833 7.72863 15.0827 7.59719C15.0827 7.33156 14.9781 7.08 14.789 6.89094ZM8.87493 12.5628H7.12493V9.37531H8.87493V12.5628ZM12.2796 7.47375V12.5628H9.87493V9.00031C9.87493 8.655 9.59524 8.37531 9.24993 8.37531H6.74993C6.40462 8.37531 6.12493 8.655 6.12493 9.00031V12.5628H3.72024V7.47375H2.22024L8.00149 1.69719L8.36243 2.05813L13.7812 7.47375H12.2796Z" fill="#16A8C8"/>
</svg>
